<svg xmlns="http://www.w3.org/2000/svg" viewBox="0 0 307.55 35.35"><title>Ресурс 1</title><g id="Слой_2" data-name="Слой 2"><g id="Слой_1-2" data-name="Слой 1"><path d="M28.6,33.25c0,1.4-1.17,2.1-3.5,2.1A7,7,0,0,1,19,32.1a7.86,7.86,0,0,1-1.23-2.7q-.27-1.3-.82-6.6-.3-3.19-2-4.53T9.2,16.85V32.6c0,.67.53,1.08,1.6,1.25.3,0,1.07.07,2.3.1.43,0,.65.13.65.4s-.28.45-.85.45H1.15c-.73,0-1.1-.15-1.1-.45S.53,34,1.5,34q2.35,0,2.55-.6a5,5,0,0,0,.2-2V3.8c0-1.33-.14-2.13-.43-2.4A4.8,4.8,0,0,0,1.25,1C.42,1,0,.8,0,.5S.27,0,.8,0a3.54,3.54,0,0,1,.45.05L7.9.2c.67,0,1.6,0,2.8-.07S13,0,13.5,0a11.87,11.87,0,0,1,7.38,2.08A6.69,6.69,0,0,1,23.6,7.7a7.13,7.13,0,0,1-2.8,5.78,13.65,13.65,0,0,1-7.6,2.67c-.3,0-.47.08-.5.15s.17.2.5.2q5.25.9,7.22,3.69t2.63,10q.4,4.11,2.8,4.11.75,0,.75-.3a.16.16,0,0,0-.05-.1,2.28,2.28,0,0,1-.25-.9c0-.7.37-1,1.1-1S28.6,32.42,28.6,33.25ZM18.25,8.2q0-7.15-6.2-7.15A4,4,0,0,0,9.8,1.5a1.88,1.88,0,0,0-.6,1.6V15.8q4.8,0,6.92-1.75T18.25,8.2Z"/><path d="M51.7,34.5c0,.2-.33.3-1,.3H40.85c-.6,0-.9-.13-.9-.4s.6-.41,1.8-.44c1.43,0,2.15-.2,2.15-.5a6.56,6.56,0,0,0-.3-.94c-.07-.27-.45-1.38-1.15-3.33l-.6-1.69H34.7a32.31,32.31,0,0,0-2.05,6c0,.3.2.47.6.5l.65,0h.75l.45.15q.6,0,.6.3c0,.23-.35.35-1.05.35l-1.77-.07c-1.09-.06-2.05-.08-2.88-.08h-.45l-.45.08-.55.07h-.1c-.53,0-.8-.1-.8-.3s.22-.37.65-.4c.6,0,1-.07,1.2-.1a1.89,1.89,0,0,0,1.1-.45q.3-.15,2.45-5.72c.57-1.5,1.12-2.91,1.65-4.21.2-.47.33-.82.4-1.05a9.48,9.48,0,0,1,.4-1.05c.57-1.37,1.37-3.45,2.4-6.22l.75-2.1.35-.9q.3-.75.6-.75c.1,0,.32.47.65,1.4q1.5,3.65,7.75,19.3c.4,1,.78,1.58,1.15,1.65.1,0,.63.08,1.6.15C51.38,34.08,51.7,34.23,51.7,34.5ZM41.55,26.65l-3.22-8.54q-1.21,3-3.34,8.54Z"/><path d="M61.05,34.45q0,.3-.45.3H52.2c-.57,0-.85-.09-.85-.26s.37-.36,1.1-.39c1-.07,1.52-.18,1.57-.35a14.79,14.79,0,0,0,.08-2.17V15.37a13.05,13.05,0,0,0-.1-2.29c-.07-.22-.32-.35-.75-.38h-1.5c-.3,0-.45-.12-.45-.35S51.52,12,52,12H60.2c.53,0,.8.13.8.4s-.57.32-1.7.35c-.47,0-.75.08-.85.23a3.39,3.39,0,0,0-.15,1.37V33.2a.62.62,0,0,0,.37.65,8,8,0,0,0,1.78.25C60.85,34.13,61.05,34.25,61.05,34.45Z"/><path d="M85.25,12.35c0,.23-.37.35-1.1.35H82.9c-.3,0-.48.07-.53.2a6.63,6.63,0,0,0-.07,1.36V32.69c0,1.21,0,1.91,0,2.11s-.19.3-.45.3-1.55-1.4-3.56-4.2c-.23-.36-.59-.86-1.09-1.5l-.55-.75q-2.49-3.31-9-12.47V32c0,1.24.17,1.89.52,2a11.78,11.78,0,0,0,1.93.1h.2q.6,0,.6.33c0,.25-.37.37-1.1.37-.14,0-.68,0-1.65-.1-.5,0-1-.05-1.35-.05s-.67,0-1,.05a18.89,18.89,0,0,1-2.05.1c-.53,0-.8-.12-.8-.37s.32-.33.95-.33h.45l.65-.05c.8-.07,1.22-.22,1.25-.45a11.5,11.5,0,0,0,0-1.46V18.29q0-3.78-.45-4.53a2.52,2.52,0,0,0-2.35-1c-.84,0-1.25-.14-1.25-.42s.22-.33.65-.33h6.35L81,28.25V14.35a5.23,5.23,0,0,0-.1-1.45c-.07-.13-.33-.2-.8-.2H78.7c-.64,0-1-.12-1-.37s.16-.25.47-.28S79.67,12,81.6,12s2.9,0,3.2,0S85.25,12.17,85.25,12.35Z"/><path d="M105.45,28.8a4.88,4.88,0,0,1-1.68,3.8,8.73,8.73,0,0,1-4.62,1.95,71.08,71.08,0,0,1-7.75.25H87.55c-.24,0-.35-.08-.35-.35s.06-.32.2-.35a8.14,8.14,0,0,1,1.2-.05c.66,0,1.05-.07,1.15-.2a2.85,2.85,0,0,0,.15-1.25v-18A4.13,4.13,0,0,0,89.75,13c-.1-.14-.64-.24-1.6-.27-.7,0-1.05-.15-1.05-.35s.36-.4,1.1-.4h.85c.36,0,1.35,0,3,.1h2.4q3.45,0,4.35.15a9.22,9.22,0,0,1,2.2.45c2.4.87,3.6,2.38,3.6,4.55q0,4.55-7,5.4l0,.15a9.34,9.34,0,0,1,5.75,1.68A5.18,5.18,0,0,1,105.45,28.8Zm-5.4-11.22c0-2.19-.5-3.57-1.49-4.13a5.89,5.89,0,0,0-2.83-.5A11.59,11.59,0,0,0,94.5,13l-.4.05V22.3a10.49,10.49,0,0,0,3.67-.5Q100.05,20.77,100.05,17.58Zm1,10.85q0-5.28-6-5.28h-1v10c0,.4.08.64.25.73a4.71,4.71,0,0,0,1.44.12Q101.1,34,101.1,28.43Z"/><path d="M130.7,23.52a11.56,11.56,0,0,1-3.15,8.21,10.13,10.13,0,0,1-7.7,3.37,11,11,0,0,1-8.18-3.42,11.54,11.54,0,0,1-3.32-8.35,11.59,11.59,0,0,1,3.17-8.41,10.85,10.85,0,0,1,8.13-3.27,10.3,10.3,0,0,1,7.87,3.42A12,12,0,0,1,130.7,23.52Zm-4.7.15c0-3.85-.79-6.9-2.35-9.12a4.8,4.8,0,0,0-4.15-2.15c-2.44,0-4.2,1.33-5.3,4a18.68,18.68,0,0,0-1.15,7.09q0,5.13,1.8,8a5.59,5.59,0,0,0,5,2.89Q126,34.4,126,23.67Z"/><path d="M165.85,12.35c0,.23-.44.37-1.3.4s-1.4.3-1.6.8c-.44,1-.87,2.13-1.3,3.3q-1.86,5.05-5.61,14.7c-.16.53-.43,1.28-.79,2.25s-.55,1.3-.95,1.3-.67-.36-.91-1.1-1.23-3.08-3-7.07c-.44-1-.89-2-1.36-3.14q-3.09,6.91-4.28,10.11c-.3.8-.67,1.2-1.1,1.2q-.36,0-.6-.63c-.07-.2-.25-.65-.55-1.37-.54-1.23-1.3-3.05-2.3-5.45l-2-4.75c-.26-.73-.7-1.82-1.3-3.25-1.06-2.6-1.83-4.52-2.29-5.75a1.45,1.45,0,0,0-1.25-1.1c-1.37-.07-2.05-.23-2.05-.5s.3-.35.9-.35H141c.43,0,.65.12.65.35s-.34.45-1,.45c-1.3,0-1.95.17-1.95.4a2.64,2.64,0,0,0,.19.68c.14.35.3.81.5,1.37q2.66,7.2,5.71,14.5l2.85-6.55c.1-.2.23-.52.4-.95-.3-.7-.84-1.93-1.6-3.7l-1.1-2.6c-.4-.93-.82-1.88-1.25-2.85a2.57,2.57,0,0,0-1.7-.3c-.37,0-.55-.13-.55-.4s.21-.4.65-.4h14.4c.63,0,.95.12.95.35s-.22.4-.65.4h-.6a6.27,6.27,0,0,0-1.7.15,2.08,2.08,0,0,0-1.2,1.2l-.35.8L152,18.45c-.3.67-.5,1.15-.6,1.45.3.77.8,1.94,1.5,3.5q1.35,3,2.61,6.15,6-15.48,6-16.24c0-.37-.32-.55-1-.55-1.05,0-1.64-.09-1.77-.25a.3.3,0,0,1,0-.21c0-.23.26-.35.8-.35h2.45c.76,0,1.46.05,2.1.05C165.23,12,165.85,12.12,165.85,12.35Zm-13,.81c0-.31-.92-.46-2.75-.46-1,0-1.45.12-1.45.35,0,.07.5,1.43,1.51,4.09a11.93,11.93,0,0,1,.45,1.26c.71-1.49,1.14-2.44,1.31-2.84l.48-1.21C152.7,13.59,152.85,13.2,152.85,13.16Z"/><path d="M193.45,9c0,.43-.2.65-.6.65s-.69-.43-.85-1.3c-.07-.6-.14-1.2-.2-1.8a8.86,8.86,0,0,0-1.15-3,4.92,4.92,0,0,0-3.45-2.1,11,11,0,0,0-2.5-.25c-1.57,0-2.52.08-2.85.1V31.4c0,1.2.31,2,1,2.25a8.93,8.93,0,0,0,2.8.3c.4,0,.6.17.6.43s-.27.42-.8.42a4.68,4.68,0,0,1-.7,0c-2-.07-3.42-.1-4.25-.1-1.1,0-2.14,0-3.1.08s-2.2.07-3.7.07c-.77,0-1.15-.13-1.15-.4s.71-.47,2.15-.5c1,0,1.7-.22,2-.65a5.1,5.1,0,0,0,.25-2.06V1.2a24.59,24.59,0,0,0-6.15.5c-2.1.77-3.34,2.82-3.7,6.15-.1,1-.34,1.5-.7,1.5s-.6-.35-.6-1a10.12,10.12,0,0,1,.05-1.1l.1-1.15q.15-2.3.45-6h2.25l10.2.15c1.2,0,3.06,0,5.6,0L192.7,0c.06,1.87.28,4.63.65,8.3a1.4,1.4,0,0,0,.05.37C193.43,8.83,193.45,8.92,193.45,9Z"/><path d="M217.6,34.5c0,.2-.34.3-1,.3h-9.85c-.6,0-.9-.13-.9-.4s.6-.41,1.8-.44c1.43,0,2.15-.2,2.15-.5a6.56,6.56,0,0,0-.3-.94c-.07-.27-.45-1.38-1.15-3.33l-.6-1.69H200.6a32.31,32.31,0,0,0-2,6c0,.3.2.47.6.5l.65,0h.75l.45.15q.6,0,.6.3c0,.23-.35.35-1,.35l-1.78-.07c-1.08-.06-2-.08-2.87-.08h-.45l-.45.08-.55.07h-.1c-.54,0-.8-.1-.8-.3s.21-.37.65-.4c.6,0,1-.07,1.2-.1a1.93,1.93,0,0,0,1.1-.45c.2-.1,1-2,2.45-5.72.56-1.5,1.11-2.91,1.65-4.21.2-.47.33-.82.4-1.05a7.79,7.79,0,0,1,.4-1.05c.56-1.37,1.36-3.45,2.4-6.22l.75-2.1.35-.9q.3-.75.6-.75c.1,0,.31.47.65,1.4q1.5,3.65,7.75,19.3c.4,1,.78,1.58,1.15,1.65.1,0,.63.08,1.6.15C217.28,34.08,217.6,34.23,217.6,34.5Zm-10.16-7.85-3.21-8.54q-1.22,3-3.34,8.54Z"/><path d="M236.7,18.06q0,.69-.6.69c-.44,0-.67-.31-.7-.92a8,8,0,0,0-.85-3.24q-1-1.74-4.35-1.74c-.34,0-.85,0-1.55.05V33c0,.63.48,1,1.45,1s1.45.17,1.45.4-.29.35-.85.35h-8.15c-.67,0-1-.12-1-.35s.55-.37,1.65-.4a2,2,0,0,0,.8-.1.58.58,0,0,0,.45-.53c0-.28.05-1.13.05-2.53v-18c-2.6,0-4.3.23-5.08.79s-1.31,1.89-1.57,4c-.1.76-.32,1.14-.65,1.14s-.45-.38-.45-1.13c0-.95.15-2.83.45-5.62h11.65q1.54,0,6.3-.08a4.65,4.65,0,0,0,1-.17l.05,1,.15,1.76.15,2.06.1.88C236.68,17.77,236.7,18,236.7,18.06Z"/><path d="M257.9,18.06q0,.69-.6.69c-.44,0-.67-.31-.7-.92a8,8,0,0,0-.85-3.24q-1-1.74-4.35-1.74c-.34,0-.85,0-1.55.05V33c0,.63.48,1,1.45,1s1.45.17,1.45.4-.29.35-.85.35h-8.15c-.67,0-1-.12-1-.35s.55-.37,1.65-.4a2,2,0,0,0,.8-.1.58.58,0,0,0,.45-.53c0-.28,0-1.13,0-2.53v-18c-2.6,0-4.3.23-5.08.79s-1.31,1.89-1.57,4c-.1.76-.32,1.14-.65,1.14s-.45-.38-.45-1.13c0-.95.15-2.83.45-5.62h11.65q1.55,0,6.3-.08a4.65,4.65,0,0,0,1-.17l.05,1,.15,1.76.15,2.06.1.88C257.88,17.77,257.9,18,257.9,18.06Z"/><path d="M282.3,23.52a11.56,11.56,0,0,1-3.15,8.21,10.13,10.13,0,0,1-7.7,3.37,11,11,0,0,1-8.18-3.42A11.5,11.5,0,0,1,260,23.33a11.55,11.55,0,0,1,3.17-8.41,10.85,10.85,0,0,1,8.13-3.27,10.31,10.31,0,0,1,7.87,3.42A12,12,0,0,1,282.3,23.52Zm-4.7.15c0-3.85-.79-6.9-2.35-9.12a4.8,4.8,0,0,0-4.15-2.15c-2.44,0-4.2,1.33-5.3,4a18.68,18.68,0,0,0-1.15,7.09q0,5.13,1.8,8a5.59,5.59,0,0,0,5,2.89Q277.6,34.4,277.6,23.67Z"/><path d="M307.55,23.52a11.56,11.56,0,0,1-3.15,8.21,10.13,10.13,0,0,1-7.7,3.37,11,11,0,0,1-8.18-3.42,11.5,11.5,0,0,1-3.32-8.35,11.55,11.55,0,0,1,3.17-8.41,10.85,10.85,0,0,1,8.13-3.27,10.31,10.31,0,0,1,7.87,3.42A12,12,0,0,1,307.55,23.52Zm-4.7.15c0-3.85-.79-6.9-2.35-9.12a4.8,4.8,0,0,0-4.15-2.15c-2.44,0-4.2,1.33-5.3,4a18.68,18.68,0,0,0-1.15,7.09q0,5.13,1.8,8a5.59,5.59,0,0,0,5,2.89Q302.85,34.4,302.85,23.67Z"/></g></g></svg>