<?xml version="1.0" encoding="UTF-8"?>
<svg width="40px" height="40px" viewBox="0 0 40 40" version="1.1" xmlns="http://www.w3.org/2000/svg" xmlns:xlink="http://www.w3.org/1999/xlink">
    <!-- Generator: Sketch 61 (89581) - https://sketch.com -->
    <title>instagram</title>
    <desc>Created with Sketch.</desc>
    <g id="Page-1" stroke="none" stroke-width="1" fill="none" fill-rule="evenodd">
        <g id="tattoo-index" transform="translate(-669.000000, -4007.000000)" fill-rule="nonzero">
            <g id="Подвал" transform="translate(0.000000, 3091.000000)">
                <g id="instagram" transform="translate(669.000000, 916.000000)">
                    <path d="M34.141193,0 L5.85992982,0 C2.62511896,0.00371248745 0.00371248745,2.62511896 0,5.85992982 L0,34.141193 C0.00371363995,37.3758216 2.62530059,39.9969062 5.85992982,40 L34.141193,40 C37.3753837,39.9962875 39.9962875,37.3753837 40,34.141193 L40,5.85992982 C39.9969062,2.62530059 37.3758216,0.00371363995 34.141193,0 Z" id="Path" fill="#FFFFFF"></path>
                    <path d="M32.6315789,4.21052632 C30.8875218,4.21052632 29.4736842,5.62436395 29.4736842,7.36842105 C29.4736842,9.11247816 30.8875218,10.5263158 32.6315789,10.5263158 C34.3756361,10.5263158 35.7894737,9.11247816 35.7894737,7.36842105 C35.7887905,5.624647 34.375353,4.21120948 32.6315789,4.21052632 Z" id="Path" fill="#000000"></path>
                    <path d="M20,10.5263158 C14.7678287,10.5263158 10.5263158,14.7678287 10.5263158,20 C10.5263158,25.2321713 14.7678287,29.4736842 20,29.4736842 C25.2321713,29.4736842 29.4736842,25.2321713 29.4736842,20 C29.4682486,14.7700818 25.2299182,10.5317514 20,10.5263158 Z" id="Path" fill="#000000"></path>
                </g>
            </g>
        </g>
    </g>
</svg>