<?xml version="1.0" encoding="UTF-8"?>
<svg width="40px" height="40px" viewBox="0 0 40 40" version="1.1" xmlns="http://www.w3.org/2000/svg" xmlns:xlink="http://www.w3.org/1999/xlink">
    <!-- Generator: Sketch 61 (89581) - https://sketch.com -->
    <title>tiktok</title>
    <desc>Created with Sketch.</desc>
    <g id="Page-1" stroke="none" stroke-width="1" fill="none" fill-rule="evenodd">
        <g id="tattoo-index" transform="translate(-614.000000, -4007.000000)" fill="#FFFFFF" fill-rule="nonzero">
            <g id="Подвал" transform="translate(0.000000, 3091.000000)">
                <g id="tiktok" transform="translate(614.000000, 916.000000)">
                    <path d="M24.8979592,8.83928571 L24.8979592,7.14285714 L21.6326531,7.14285714 L21.6326531,25.8035714 C21.6326531,28.6143063 19.439762,30.8928571 16.7346939,30.8928571 C14.0296257,30.8928571 11.8367347,28.6143063 11.8367347,25.8035714 C11.8367347,22.9928365 14.0296257,20.7142857 16.7346939,20.7142857 L18.3673469,20.7142857 L18.3673469,17.3214286 L16.7346939,17.3214286 C12.2262469,17.3214286 8.57142857,21.1190133 8.57142857,25.8035714 C8.57142857,30.4881296 12.2262469,34.2857143 16.7346939,34.2857143 C21.2431408,34.2857143 24.8979592,30.4881296 24.8979592,25.8035714 L24.8979592,15.609096 C26.3072782,16.7194693 28.0272608,17.3207773 29.7959184,17.3214286 L31.4285714,17.3214286 L31.4285714,13.9285714 L29.7959184,13.9285714 C27.0920159,13.9256494 24.9007714,11.6488094 24.8979592,8.83928571 Z" id="Path"></path>
                    <path d="M0,40 L40,40 L40,0 L0,0 L0,40 Z M3.33333333,3.33333333 L36.6666667,3.33333333 L36.6666667,36.6666667 L3.33333333,36.6666667 L3.33333333,3.33333333 Z" id="Shape"></path>
                </g>
            </g>
        </g>
    </g>
</svg>